<svg width="24" height="22" viewBox="0 0 24 22" fill="none" xmlns="http://www.w3.org/2000/svg">
<path d="M9.7995 2.16998L6.8995 7.30998M13.8797 2.16998L16.7897 7.30998M17.8896 19.8699H6.10955C5.79187 19.8702 5.48326 19.764 5.23309 19.5682C4.98291 19.3724 4.80562 19.0984 4.72955 18.7899L2.07955 8.17994C2.05369 8.07665 2.05174 7.96882 2.07383 7.86466C2.09593 7.7605 2.1415 7.66276 2.20707 7.57887C2.27264 7.49497 2.35649 7.42714 2.45223 7.38054C2.54797 7.33394 2.65307 7.30979 2.75955 7.30994H21.2396C21.346 7.30979 21.4511 7.33394 21.5469 7.38054C21.6426 7.42714 21.7265 7.49497 21.792 7.57887C21.8576 7.66276 21.9032 7.7605 21.9253 7.86466C21.9474 7.96882 21.9454 8.07665 21.9196 8.17994L19.2696 18.7899C19.1935 19.0984 19.0162 19.3724 18.766 19.5682C18.5158 19.764 18.2072 19.8702 17.8896 19.8699Z" stroke="#151515" stroke-width="2.5" stroke-linecap="round" stroke-linejoin="round"/>
</svg>
